<svg xmlns="http://www.w3.org/2000/svg" version="1.1" xmlns:xlink="http://www.w3.org/1999/xlink" xmlns:svgjs="http://svgjs.com/svgjs" width="1440" height="560" preserveAspectRatio="none" viewBox="0 0 1440 560"><g mask="url(&quot;#SvgjsMask1025&quot;)" fill="none"><rect width="1440" height="560" x="0" y="0" fill="rgba(255,255,255, 1)"></rect><path d="M581.82 646.8C707.87 571.51 638.54 140.83 870.12 135.17 1101.7 129.51 1295.79 312.32 1446.73 314.37" stroke="rgba(240, 20, 108, 0.58)" stroke-width="2"></path><path d="M350.47 618.64C458.83 611.61 423.15 415.19 729.61 406.68 1036.06 398.17 1288.58 163.35 1487.88 160.28" stroke="rgba(240, 20, 108, 0.58)" stroke-width="2"></path><path d="M386.59 597.73C499.39 585.5 454 349.96 759.56 339.15 1065.13 328.34 1309.99 106.71 1505.51 103.95" stroke="rgba(240, 20, 108, 0.58)" stroke-width="2"></path><path d="M158.93 618.78C294.78 602.68 372.25 301.16 602.81 298.79 833.37 296.42 824.76 368.79 1046.7 368.79 1268.64 368.79 1378.24 299 1490.58 298.79" stroke="rgba(240, 20, 108, 0.58)" stroke-width="2"></path><path d="M718.84 661.25C879.38 623.02 938.94 196.37 1183.58 192.45 1428.21 188.53 1525.26 352.53 1648.31 354.85" stroke="rgba(240, 20, 108, 0.58)" stroke-width="2"></path></g><defs><mask id="SvgjsMask1025"><rect width="1440" height="560" fill="#ffffff"></rect></mask></defs></svg>